<svg width="500" height="450" xmlns="http://www.w3.org/2000/svg">
 <title>icon-mastersGames</title>
 <g>
  <title>Layer 1</title>
  <path id="svg_17" d="m77.11167,439.32602c-21.92566,-22.87478 -39.66701,-50.11493 -51.927,-80.36726c-12.25996,-30.2523 -19.03849,-63.51675 -19.03849,-98.44005c0,-139.6932 108.45668,-252.84469 242.35382,-252.84469c133.89714,0 242.35382,113.15148 242.35382,252.84469c0,69.84661 -27.11418,133.05777 -70.96548,178.80729" opacity="undefined" stroke-width="18" stroke="#ff0000" fill="none"/>
  <path id="svg_16" d="m132.15746,393.31508c-15.0843,-16.18759 -27.28993,-35.4644 -35.72447,-56.87281c-8.43455,-21.40841 -13.09802,-44.94837 -13.09802,-69.66226c0,-98.85552 74.61548,-178.92849 166.73337,-178.92849c92.1179,0 166.73337,80.07296 166.73337,178.92849c0,49.42773 -18.65389,94.15989 -48.82248,126.53506" opacity="undefined" stroke-width="18" stroke="#ff0000" fill="none"/>
  <g stroke-width="18" id="svg_1">
   <path id="svg_2" class="a" d="m337.9016,213.35188l0,0a36.02473,44.40385 0 0 0 -60.56945,-26.47139l-52.85043,0a36.07374,44.46428 0 0 0 -24.74234,-12.19915l0,0a36.12425,44.52654 0 0 0 -35.87664,38.67053l0,0l-9.45189,92.9569c-1.58481,23.72681 32.31377,24.39772 38.64808,8.05116l15.29093,-29.88743a21.3776,26.34991 0 0 1 17.76524,-14.02927l49.48469,0a20.98139,25.86155 0 0 1 17.91379,14.02927l15.29093,29.88743c6.33429,16.22443 40.23139,15.67565 38.64808,-8.05116l-9.55096,-92.9569l0,0l-0.00002,0.00001l-0.00001,0l-0.00001,0z" fill="none" stroke="#ff0000" stroke-linecap="round" stroke-linejoin="round"/>
  </g>
 </g>

</svg>