<svg width="250" height="70" xmlns="http://www.w3.org/2000/svg">
 <title>MastersGames</title>

 <g>
  <title>Layer 1</title>
  <text transform="matrix(0.655272, 0, 0, 0.8325, 43.3195, 3.66269)" font-weight="bold" fill="#ffffff" stroke="#ffffff" stroke-width="0" x="64.80734" y="43.43902" id="svg_6" font-size="35" font-family="'Vollkorn'" text-anchor="start" xml:space="preserve">Masters Games</text>
  <g id="svg_5">
   <path fill="none" stroke="#ffffff" stroke-width="3" opacity="undefined" d="m13.1211,65.54353c-3.05587,-3.23722 -5.52855,-7.09223 -7.23728,-11.37351c-1.70872,-4.28128 -2.65347,-8.98884 -2.65347,-13.93116c0,-19.76928 15.11604,-35.78239 33.77783,-35.78239c18.66178,0 33.77783,16.01311 33.77783,35.78239c0,9.88464 -3.77901,18.83024 -9.89074,25.30467" id="svg_17"/>
   <path fill="none" stroke="#ffffff" stroke-width="3" opacity="undefined" d="m20.79306,59.0321c-2.10236,-2.29086 -3.80351,-5.0189 -4.97906,-8.0486c-1.17556,-3.0297 -1.82552,-6.36106 -1.82552,-9.85855c0,-13.98996 10.39946,-25.32183 23.2383,-25.32183c12.83884,0 23.2383,11.33187 23.2383,25.32183c0,6.99498 -2.59987,13.32544 -6.80459,17.90715" id="svg_16"/>
   <g id="svg_1" stroke-width="3">
    <path stroke-linejoin="round" stroke-linecap="round" stroke="#ffffff" fill="none" d="m49.46844,33.56384l0,0a5.02091,6.284 0 0 0 -8.44181,-3.74621l-7.36598,0a5.02774,6.29255 0 0 0 -3.44844,-1.72642l0,0a5.03478,6.30136 0 0 0 -5.00027,5.47263l0,0l-1.31735,13.15519c-0.22088,3.3578 4.5037,3.45275 5.38654,1.13939l2.13116,-4.22965a2.97948,3.72902 0 0 1 2.47601,-1.98541l6.89688,0a2.92426,3.65991 0 0 1 2.49672,1.98541l2.13116,4.22965c0.88283,2.29607 5.60721,2.21841 5.38654,-1.13939l-1.33116,-13.15519l0,0l0,0l0,0l0,0l0,0z" class="a" id="svg_2"/>
   </g>
  </g>
 </g>
</svg>